<svg width="48" height="48" viewBox="0 0 48 48" fill="none" xmlns="http://www.w3.org/2000/svg">
<rect x="0.5" y="0.5" width="47" height="47" rx="3.5" fill="#E8F1FF" stroke="#B3D4FF"/>
<path d="M33 18C32.7348 18 32.4804 18.1054 32.2929 18.2929C32.1054 18.4804 32 18.7348 32 19V29C32 29.7956 31.6839 30.5587 31.1213 31.1213C30.5587 31.6839 29.7956 32 29 32H19C18.7348 32 18.4804 32.1054 18.2929 32.2929C18.1054 32.4804 18 32.7348 18 33C18 33.2652 18.1054 33.5196 18.2929 33.7071C18.4804 33.8946 18.7348 34 19 34H29C30.3261 34 31.5979 33.4732 32.5355 32.5355C33.4732 31.5979 34 30.3261 34 29V19C34 18.7348 33.8946 18.4804 33.7071 18.2929C33.5196 18.1054 33.2652 18 33 18ZM30 27V17C30 16.2044 29.6839 15.4413 29.1213 14.8787C28.5587 14.3161 27.7956 14 27 14H17C16.2044 14 15.4413 14.3161 14.8787 14.8787C14.3161 15.4413 14 16.2044 14 17V27C14 27.7956 14.3161 28.5587 14.8787 29.1213C15.4413 29.6839 16.2044 30 17 30H27C27.7956 30 28.5587 29.6839 29.1213 29.1213C29.6839 28.5587 30 27.7956 30 27ZM22 16H24V20.86L23.64 20.56C23.4603 20.4103 23.2339 20.3284 23 20.3284C22.7661 20.3284 22.5397 20.4103 22.36 20.56L22 20.86V16ZM16 27V17C16 16.7348 16.1054 16.4804 16.2929 16.2929C16.4804 16.1054 16.7348 16 17 16H20V23C20 23.1912 20.0548 23.3783 20.1579 23.5393C20.2609 23.7003 20.408 23.8284 20.5816 23.9083C20.7553 23.9883 20.9482 24.0169 21.1375 23.9906C21.3269 23.9643 21.5047 23.8843 21.65 23.76L23 22.63L24.35 23.76C24.5311 23.9149 24.7617 24 25 24C25.1447 23.999 25.2876 23.9683 25.42 23.91C25.5936 23.8297 25.7405 23.7012 25.8433 23.5399C25.9461 23.3787 26.0005 23.1913 26 23V16H27C27.2652 16 27.5196 16.1054 27.7071 16.2929C27.8946 16.4804 28 16.7348 28 17V27C28 27.2652 27.8946 27.5196 27.7071 27.7071C27.5196 27.8946 27.2652 28 27 28H17C16.7348 28 16.4804 27.8946 16.2929 27.7071C16.1054 27.5196 16 27.2652 16 27Z" fill="#324CDD"/>
</svg>
