<svg width="25" height="24" viewBox="0 0 25 24" fill="none" xmlns="http://www.w3.org/2000/svg">
<path d="M12.2927 16.6667C12.6148 16.6667 12.876 16.4055 12.876 16.0833C12.876 15.7612 12.6148 15.5 12.2927 15.5C11.9705 15.5 11.7094 15.7612 11.7094 16.0833C11.7094 16.4055 11.9705 16.6667 12.2927 16.6667Z" stroke="#42526E" stroke-width="1.5" stroke-linecap="round" stroke-linejoin="round"/>
<path d="M12.2927 12.5833C12.6148 12.5833 12.876 12.3222 12.876 12C12.876 11.6778 12.6148 11.4167 12.2927 11.4167C11.9705 11.4167 11.7094 11.6778 11.7094 12C11.7094 12.3222 11.9705 12.5833 12.2927 12.5833Z" stroke="#42526E" stroke-width="1.5" stroke-linecap="round" stroke-linejoin="round"/>
<path d="M12.2927 8.5C12.6148 8.5 12.876 8.23884 12.876 7.91667C12.876 7.5945 12.6148 7.33334 12.2927 7.33334C11.9705 7.33334 11.7094 7.5945 11.7094 7.91667C11.7094 8.23884 11.9705 8.5 12.2927 8.5Z" stroke="#42526E" stroke-width="1.5" stroke-linecap="round" stroke-linejoin="round"/>
<path d="M4 1H20.5854V-1H4V1ZM23.5854 4V20H25.5854V4H23.5854ZM20.5854 23H4V25H20.5854V23ZM1 20V4H-1V20H1ZM4 23C2.34314 23 1 21.6569 1 20H-1C-1 22.7614 1.23857 25 4 25V23ZM23.5854 20C23.5854 21.6569 22.2422 23 20.5854 23V25C23.3468 25 25.5854 22.7614 25.5854 20H23.5854ZM20.5854 1C22.2422 1 23.5854 2.34314 23.5854 4H25.5854C25.5854 1.23858 23.3468 -1 20.5854 -1V1ZM4 -1C1.23858 -1 -1 1.23858 -1 4H1C1 2.34315 2.34315 1 4 1V-1Z" fill="#E4E8EB"/>
</svg>
