<svg width="8" height="14" viewBox="0 0 8 14" fill="none" xmlns="http://www.w3.org/2000/svg">
<path d="M1 0.25C1.19891 0.25 1.38968 0.329018 1.53033 0.46967C1.67098 0.610322 1.75 0.801088 1.75 1V13C1.75 13.1989 1.67098 13.3897 1.53033 13.5303C1.38968 13.671 1.19891 13.75 1 13.75C0.801088 13.75 0.610322 13.671 0.46967 13.5303C0.329018 13.3897 0.25 13.1989 0.25 13V1C0.25 0.801088 0.329018 0.610322 0.46967 0.46967C0.610322 0.329018 0.801088 0.25 1 0.25ZM7 0.25C7.19891 0.25 7.38968 0.329018 7.53033 0.46967C7.67098 0.610322 7.75 0.801088 7.75 1V13C7.75 13.1989 7.67098 13.3897 7.53033 13.5303C7.38968 13.671 7.19891 13.75 7 13.75C6.80109 13.75 6.61032 13.671 6.46967 13.5303C6.32902 13.3897 6.25 13.1989 6.25 13V1C6.25 0.801088 6.32902 0.610322 6.46967 0.46967C6.61032 0.329018 6.80109 0.25 7 0.25Z" fill="black"/>
</svg>
