<svg width="48" height="48" viewBox="0 0 48 48" fill="none" xmlns="http://www.w3.org/2000/svg">
<rect x="0.5" y="0.5" width="47" height="47" rx="3.5" fill="#E8F1FF" stroke="#B3D4FF"/>
<path d="M31.7002 20.2576L31.7089 20.2675C31.7327 20.2947 31.7492 20.326 31.7579 20.3588C31.7662 20.3903 31.7674 20.423 31.7613 20.4548L30.5029 25.8916L30.5024 25.8936C30.4175 26.2675 30.2043 26.6043 29.8951 26.8474C29.5858 27.0906 29.1994 27.2248 28.7992 27.2261H18C17.5321 27.2261 17.0857 27.0445 16.7584 26.7247C16.4315 26.4053 16.25 25.9747 16.25 25.5282V16.7363C16.25 16.2898 16.4315 15.8592 16.7584 15.5398C17.0857 15.22 17.5321 15.0383 18 15.0383L20.67 15.0383L20.6719 15.0383C21.0376 15.037 21.3937 15.1468 21.6908 15.3512C21.9857 15.554 22.2072 15.8395 22.3274 16.1671L22.5648 16.892L22.6776 17.2363H23.04H27.75C28.2179 17.2363 28.6643 17.418 28.9916 17.7377L29.341 17.3801L28.9916 17.7377C29.3185 18.0571 29.5 18.4878 29.5 18.9343V19.6669V20.1669H30L31.5 20.1669L31.5017 20.1669C31.5409 20.1668 31.5792 20.1753 31.6138 20.1913L31.824 19.7376L31.6138 20.1913C31.6483 20.2073 31.6777 20.2302 31.7003 20.2574L31.7002 20.2576ZM19.5147 25.8017L19.5147 25.8017L19.5154 25.7988L20.7372 20.3507C20.7373 20.3504 20.7374 20.35 20.7375 20.3497C20.7491 20.3002 20.7784 20.2537 20.8234 20.2194L20.5204 19.8217L20.8234 20.2194C20.869 20.1847 20.9272 20.1653 20.9881 20.1668L20.9881 20.1669H21H28.5H29V19.6669V18.9343C29 18.6035 28.8654 18.2888 28.6297 18.0585C28.3945 17.8287 28.0778 17.7016 27.75 17.7016H22.5147C22.4651 17.6977 22.4186 17.6801 22.3807 17.6521C22.341 17.6228 22.3129 17.5839 22.2981 17.5417L21.8938 16.3422L21.8938 16.3422L21.8928 16.3392C21.8043 16.0821 21.633 15.8628 21.4075 15.713C21.1861 15.5659 20.9237 15.4932 20.6589 15.5037H18C17.6722 15.5037 17.3555 15.6308 17.1203 15.8606L17.4376 16.1855L17.1203 15.8606C16.8846 16.0908 16.75 16.4056 16.75 16.7363V25.5282C16.75 25.8589 16.8846 26.1737 17.1203 26.4039C17.3555 26.6337 17.6722 26.7608 18 26.7608H18.2723C18.5558 26.7661 18.834 26.6761 19.0601 26.5038L18.7571 26.1061L19.0601 26.5038C19.2883 26.3299 19.45 26.0823 19.5147 25.8017ZM19.9558 26.0465L19.6168 26.7608H20.4075H28.7723C29.0558 26.7661 29.334 26.6761 29.5601 26.5038C29.788 26.3302 29.9495 26.0831 30.0144 25.8029C30.0145 25.8025 30.0146 25.8021 30.0147 25.8017L31.0867 21.2468L31.2313 20.6322H30.6H21.6H21.2011L21.1125 21.0212L20.0025 25.8933L20 25.9043L19.998 25.9154C19.9898 25.9604 19.9757 26.0045 19.9558 26.0465Z" stroke="#324CDD"/>
</svg>
