<svg width="48" height="48" viewBox="0 0 48 48" fill="none" xmlns="http://www.w3.org/2000/svg">
<rect width="48" height="48" rx="4" fill="#F5F6F8"/>
<path d="M20 34H17C16.4696 34 15.9609 33.7893 15.5858 33.4142C15.2107 33.0391 15 32.5304 15 32V25C15 24.4696 15.2107 23.9609 15.5858 23.5858C15.9609 23.2107 16.4696 23 17 23H20M27 21V17C27 16.2044 26.6839 15.4413 26.1213 14.8787C25.5587 14.3161 24.7956 14 24 14L20 23V34H31.28C31.7623 34.0055 32.2304 33.8364 32.5979 33.524C32.9654 33.2116 33.2077 32.7769 33.28 32.3L34.66 23.3C34.7035 23.0134 34.6842 22.7207 34.6033 22.4423C34.5225 22.1638 34.3821 21.9063 34.1919 21.6875C34.0016 21.4687 33.7661 21.2939 33.5016 21.1752C33.2371 21.0565 32.9499 20.9967 32.66 21H27Z" stroke="#505F79" stroke-width="2" stroke-linecap="round" stroke-linejoin="round"/>
</svg>
