<svg width="48" height="48" viewBox="0 0 48 48" fill="none" xmlns="http://www.w3.org/2000/svg">
<rect width="48" height="48" rx="4" fill="#F5F6F8"/>
<path d="M18 25H14C13.7348 25 13.4804 25.1054 13.2929 25.2929C13.1054 25.4804 13 25.7348 13 26V34C13 34.2652 13.1054 34.5196 13.2929 34.7071C13.4804 34.8946 13.7348 35 14 35H18C18.2652 35 18.5196 34.8946 18.7071 34.7071C18.8946 34.5196 19 34.2652 19 34V26C19 25.7348 18.8946 25.4804 18.7071 25.2929C18.5196 25.1054 18.2652 25 18 25ZM17 33H15V27H17V33ZM34 21H30C29.7348 21 29.4804 21.1054 29.2929 21.2929C29.1054 21.4804 29 21.7348 29 22V34C29 34.2652 29.1054 34.5196 29.2929 34.7071C29.4804 34.8946 29.7348 35 30 35H34C34.2652 35 34.5196 34.8946 34.7071 34.7071C34.8946 34.5196 35 34.2652 35 34V22C35 21.7348 34.8946 21.4804 34.7071 21.2929C34.5196 21.1054 34.2652 21 34 21ZM33 33H31V23H33V33ZM26 13H22C21.7348 13 21.4804 13.1054 21.2929 13.2929C21.1054 13.4804 21 13.7348 21 14V34C21 34.2652 21.1054 34.5196 21.2929 34.7071C21.4804 34.8946 21.7348 35 22 35H26C26.2652 35 26.5196 34.8946 26.7071 34.7071C26.8946 34.5196 27 34.2652 27 34V14C27 13.7348 26.8946 13.4804 26.7071 13.2929C26.5196 13.1054 26.2652 13 26 13ZM25 33H23V15H25V33Z" fill="#505F79"/>
</svg>
