<svg width="48" height="48" viewBox="0 0 48 48" fill="none" xmlns="http://www.w3.org/2000/svg">
<rect width="48" height="48" rx="4" fill="#F5F6F8"/>
<path d="M29.0899 14.8199C28.1702 14.0635 27.0933 13.522 25.9376 13.2348C24.7819 12.9476 23.5767 12.922 22.4099 13.1599C20.8563 13.4738 19.4309 14.242 18.3146 15.3672C17.1983 16.4924 16.4414 17.9239 16.1399 19.4799C15.9198 20.6467 15.9598 21.8476 16.2571 22.9971C16.5544 24.1466 17.1017 25.2163 17.8599 26.1299C18.5636 26.924 18.967 27.9395 18.9999 28.9999V31.9999C18.9999 32.7956 19.316 33.5587 19.8786 34.1213C20.4412 34.6839 21.2043 34.9999 21.9999 34.9999H25.9999C26.7956 34.9999 27.5587 34.6839 28.1213 34.1213C28.6839 33.5587 28.9999 32.7956 28.9999 31.9999V29.1899C29.0335 28.0191 29.4637 26.8944 30.2199 25.9999C31.5451 24.3607 32.1697 22.2648 31.9581 20.1676C31.7465 18.0704 30.7158 16.1414 29.0899 14.7999V14.8199ZM26.9999 31.9999C26.9999 32.2652 26.8946 32.5195 26.707 32.7071C26.5195 32.8946 26.2652 32.9999 25.9999 32.9999H21.9999C21.7347 32.9999 21.4804 32.8946 21.2928 32.7071C21.1053 32.5195 20.9999 32.2652 20.9999 31.9999V30.9999H26.9999V31.9999ZM28.6699 24.7599C27.6644 25.9525 27.0778 27.442 26.9999 28.9999H24.9999V25.9999C24.9999 25.7347 24.8946 25.4804 24.707 25.2928C24.5195 25.1053 24.2652 24.9999 23.9999 24.9999C23.7347 24.9999 23.4804 25.1053 23.2928 25.2928C23.1053 25.4804 22.9999 25.7347 22.9999 25.9999V28.9999H20.9999C20.9736 27.468 20.4069 25.9947 19.3999 24.8399C18.7356 24.0439 18.2888 23.0894 18.1033 22.0693C17.9177 21.0492 17.9996 19.9985 18.341 19.0195C18.6825 18.0405 19.2718 17.1667 20.0515 16.4833C20.8312 15.7999 21.7747 15.3301 22.7899 15.1199C23.6625 14.9403 24.5641 14.9572 25.4293 15.1694C26.2945 15.3816 27.1016 15.7839 27.792 16.3469C28.4824 16.9099 29.0387 17.6196 29.4206 18.4245C29.8025 19.2293 30.0004 20.1091 29.9999 20.9999C30.0073 22.3698 29.537 23.6994 28.6699 24.7599Z" fill="#505F79"/>
</svg>
