<svg width="32" height="32" viewBox="0 0 32 32" fill="none" xmlns="http://www.w3.org/2000/svg">
<path d="M10 20.5C10 20.1022 10.158 19.7206 10.4393 19.4393C10.7206 19.158 11.1022 19 11.5 19C11.8978 19 12.2794 19.158 12.5607 19.4393C12.842 19.7206 13 20.1022 13 20.5V22C13 22.3978 12.842 22.7794 12.5607 23.0607C12.2794 23.342 11.8978 23.5 11.5 23.5C11.1022 23.5 10.7206 23.342 10.4393 23.0607C10.158 22.7794 10 22.3978 10 22V20.5ZM19 14.5C19 14.1022 19.158 13.7206 19.4393 13.4393C19.7206 13.158 20.1022 13 20.5 13C20.8978 13 21.2794 13.158 21.5607 13.4393C21.842 13.7206 22 14.1022 22 14.5V22C22 22.3978 21.842 22.7794 21.5607 23.0607C21.2794 23.342 20.8978 23.5 20.5 23.5C20.1022 23.5 19.7206 23.342 19.4393 23.0607C19.158 22.7794 19 22.3978 19 22V14.5ZM14.5 17.5C14.5 17.1022 14.658 16.7206 14.9393 16.4393C15.2206 16.158 15.6022 16 16 16C16.3978 16 16.7794 16.158 17.0607 16.4393C17.342 16.7206 17.5 17.1022 17.5 17.5V22C17.5 22.3978 17.342 22.7794 17.0607 23.0607C16.7794 23.342 16.3978 23.5 16 23.5C15.6022 23.5 15.2206 23.342 14.9393 23.0607C14.658 22.7794 14.5 22.3978 14.5 22V17.5Z" fill="black"/>
<path d="M10 6.25H8.5C7.70435 6.25 6.94129 6.56607 6.37868 7.12868C5.81607 7.69129 5.5 8.45435 5.5 9.25V25C5.5 25.7956 5.81607 26.5587 6.37868 27.1213C6.94129 27.6839 7.70435 28 8.5 28H23.5C24.2956 28 25.0587 27.6839 25.6213 27.1213C26.1839 26.5587 26.5 25.7956 26.5 25V9.25C26.5 8.45435 26.1839 7.69129 25.6213 7.12868C25.0587 6.56607 24.2956 6.25 23.5 6.25H22V7.75H23.5C23.8978 7.75 24.2794 7.90804 24.5607 8.18934C24.842 8.47064 25 8.85218 25 9.25V25C25 25.3978 24.842 25.7794 24.5607 26.0607C24.2794 26.342 23.8978 26.5 23.5 26.5H8.5C8.10218 26.5 7.72064 26.342 7.43934 26.0607C7.15804 25.7794 7 25.3978 7 25V9.25C7 8.85218 7.15804 8.47064 7.43934 8.18934C7.72064 7.90804 8.10218 7.75 8.5 7.75H10V6.25Z" fill="black"/>
<path d="M18.25 5.5C18.4489 5.5 18.6397 5.57902 18.7803 5.71967C18.921 5.86032 19 6.05109 19 6.25V7.75C19 7.94891 18.921 8.13968 18.7803 8.28033C18.6397 8.42098 18.4489 8.5 18.25 8.5H13.75C13.5511 8.5 13.3603 8.42098 13.2197 8.28033C13.079 8.13968 13 7.94891 13 7.75V6.25C13 6.05109 13.079 5.86032 13.2197 5.71967C13.3603 5.57902 13.5511 5.5 13.75 5.5H18.25ZM13.75 4C13.1533 4 12.581 4.23705 12.159 4.65901C11.7371 5.08097 11.5 5.65326 11.5 6.25V7.75C11.5 8.34674 11.7371 8.91903 12.159 9.34099C12.581 9.76295 13.1533 10 13.75 10H18.25C18.8467 10 19.419 9.76295 19.841 9.34099C20.2629 8.91903 20.5 8.34674 20.5 7.75V6.25C20.5 5.65326 20.2629 5.08097 19.841 4.65901C19.419 4.23705 18.8467 4 18.25 4H13.75Z" fill="black"/>
</svg>
